<svg width="100" height="100" viewBox="0 0 100 100" fill="none" xmlns="http://www.w3.org/2000/svg">
<rect width="100" height="100" rx="12" fill="black"/>
<path d="M49.9749 47.4506C47.2993 42.2666 40.0417 32.5842 33.2857 27.8182C26.814 23.2529 24.3391 24.0389 22.7337 24.7747C20.8608 25.6276 20.5263 28.5039 20.5263 30.1929C20.5263 31.8818 21.4461 44.0727 22.0648 46.0961C24.0715 52.8186 31.1786 55.0929 37.7339 54.3571C38.0684 54.3069 38.4028 54.2568 38.754 54.2233C38.4196 54.2735 38.0684 54.3236 37.7339 54.3571C28.1351 55.7785 19.5898 59.2736 30.794 71.7319C43.1019 84.4746 47.6672 69.0061 50.0084 61.1465C52.3495 68.9894 55.0419 83.906 68.9886 71.7319C79.4737 61.1465 71.8649 55.7785 62.2661 54.3571C61.9316 54.3236 61.5804 54.2735 61.246 54.2233C61.5972 54.2735 61.9316 54.3069 62.2661 54.3571C68.8213 55.0929 75.9452 52.8186 77.9352 46.0961C78.5372 44.0559 79.4737 31.8818 79.4737 30.1929C79.4737 28.5039 79.1392 25.6276 77.2663 24.7747C75.6442 24.0389 73.186 23.2529 66.7143 27.8182C59.9082 32.6009 52.6505 42.2666 49.9749 47.4506Z" fill="#CC8DFF"/>
</svg>
