<svg width="291" height="42" viewBox="0 0 291 42" fill="none" xmlns="http://www.w3.org/2000/svg">
<rect width="291" height="42" rx="21" fill="black"/>
<rect x="0.5" y="0.5" width="290" height="41" rx="20.5" stroke="white" stroke-opacity="0.15"/>
<rect x="14" y="12" width="34" height="18" rx="9" fill="#9855FF"/>
<path d="M25.7152 17.2273V24.5H24.3871L21.223 19.9226H21.1697V24.5H19.6321V17.2273H20.9815L24.1207 21.8011H24.1847V17.2273H25.7152ZM26.9846 24.5V17.2273H31.8852V18.495H28.5223V20.228H31.6331V21.4957H28.5223V23.2322H31.8994V24.5H26.9846ZM34.7437 24.5L32.6628 17.2273H34.3425L35.5463 22.2805H35.6067L36.9348 17.2273H38.373L39.6976 22.2912H39.7615L40.9653 17.2273H42.645L40.5641 24.5H39.0655L37.6805 19.745H37.6237L36.2423 24.5H34.7437Z" fill="black"/>
<path d="M56.4091 27V15.3636H57.8182V25.75H63.2273V27H56.4091ZM67.7939 27.2045C67.2408 27.2045 66.7389 27.1004 66.2882 26.892C65.8374 26.6799 65.4795 26.375 65.2143 25.9773C64.9492 25.5758 64.8166 25.0909 64.8166 24.5227C64.8166 24.0227 64.9151 23.6174 65.112 23.3068C65.309 22.9924 65.5723 22.7462 65.9018 22.5682C66.2314 22.3902 66.595 22.2576 66.9927 22.1705C67.3942 22.0795 67.7976 22.0076 68.2029 21.9545C68.7332 21.8864 69.1632 21.8352 69.4927 21.8011C69.8261 21.7633 70.0685 21.7008 70.22 21.6136C70.3753 21.5265 70.4529 21.375 70.4529 21.1591V21.1136C70.4529 20.553 70.2995 20.1174 69.9927 19.8068C69.6897 19.4962 69.2295 19.3409 68.612 19.3409C67.9719 19.3409 67.47 19.4811 67.1064 19.7614C66.7427 20.0417 66.487 20.3409 66.3393 20.6591L65.0666 20.2045C65.2939 19.6742 65.5969 19.2614 65.9757 18.9659C66.3582 18.6667 66.7749 18.4583 67.2257 18.3409C67.6802 18.2197 68.1272 18.1591 68.5666 18.1591C68.8469 18.1591 69.1689 18.1932 69.5325 18.2614C69.8999 18.3258 70.2541 18.4602 70.595 18.6648C70.9397 18.8693 71.2257 19.178 71.4529 19.5909C71.6802 20.0038 71.7939 20.5568 71.7939 21.25V27H70.4529V25.8182H70.3848C70.2939 26.0076 70.1423 26.2102 69.9302 26.4261C69.7181 26.642 69.4359 26.8258 69.0836 26.9773C68.7314 27.1288 68.3014 27.2045 67.7939 27.2045ZM67.9984 26C68.5287 26 68.9757 25.8958 69.3393 25.6875C69.7067 25.4792 69.9832 25.2102 70.1689 24.8807C70.3582 24.5511 70.4529 24.2045 70.4529 23.8409V22.6136C70.3961 22.6818 70.2711 22.7443 70.0779 22.8011C69.8886 22.8542 69.6689 22.9015 69.4189 22.9432C69.1726 22.9811 68.9321 23.0152 68.6973 23.0455C68.4662 23.072 68.2787 23.0947 68.1348 23.1136C67.7863 23.1591 67.4605 23.233 67.1575 23.3352C66.8582 23.4337 66.6158 23.5833 66.4302 23.7841C66.2484 23.9811 66.1575 24.25 66.1575 24.5909C66.1575 25.0568 66.3298 25.4091 66.6745 25.6477C67.023 25.8826 67.4643 26 67.9984 26ZM78.0352 18.2727V19.4091H73.5124V18.2727H78.0352ZM74.8306 16.1818H76.1715V24.5C76.1715 24.8788 76.2264 25.1629 76.3363 25.3523C76.4499 25.5379 76.5939 25.6629 76.7681 25.7273C76.9461 25.7879 77.1336 25.8182 77.3306 25.8182C77.4783 25.8182 77.5995 25.8106 77.6942 25.7955C77.7889 25.7765 77.8647 25.7614 77.9215 25.75L78.1942 26.9545C78.1033 26.9886 77.9764 27.0227 77.8136 27.0568C77.6507 27.0947 77.4442 27.1136 77.1942 27.1136C76.8155 27.1136 76.4442 27.0322 76.0806 26.8693C75.7208 26.7064 75.4215 26.4583 75.1829 26.125C74.948 25.7917 74.8306 25.3712 74.8306 24.8636V16.1818ZM83.6159 27.1818C82.775 27.1818 82.0496 26.9962 81.4398 26.625C80.8337 26.25 80.3659 25.7273 80.0364 25.0568C79.7106 24.3826 79.5478 23.5985 79.5478 22.7045C79.5478 21.8106 79.7106 21.0227 80.0364 20.3409C80.3659 19.6553 80.8243 19.1212 81.4114 18.7386C82.0023 18.3523 82.6917 18.1591 83.4796 18.1591C83.9341 18.1591 84.383 18.2348 84.8262 18.3864C85.2693 18.5379 85.6728 18.7841 86.0364 19.125C86.4 19.4621 86.6898 19.9091 86.9057 20.4659C87.1216 21.0227 87.2296 21.7083 87.2296 22.5227V23.0909H80.5023V21.9318H85.8659C85.8659 21.4394 85.7675 21 85.5705 20.6136C85.3773 20.2273 85.1008 19.9223 84.7409 19.6989C84.3849 19.4754 83.9644 19.3636 83.4796 19.3636C82.9455 19.3636 82.4834 19.4962 82.0932 19.7614C81.7068 20.0227 81.4095 20.3636 81.2012 20.7841C80.9928 21.2045 80.8887 21.6553 80.8887 22.1364V22.9091C80.8887 23.5682 81.0023 24.1269 81.2296 24.5852C81.4606 25.0398 81.7807 25.3864 82.1898 25.625C82.5989 25.8598 83.0743 25.9773 83.6159 25.9773C83.9682 25.9773 84.2864 25.928 84.5705 25.8295C84.8584 25.7273 85.1065 25.5758 85.3148 25.375C85.5231 25.1705 85.6841 24.9167 85.7978 24.6136L87.0932 24.9773C86.9568 25.4167 86.7277 25.803 86.4057 26.1364C86.0837 26.4659 85.686 26.7235 85.2125 26.9091C84.739 27.0909 84.2068 27.1818 83.6159 27.1818ZM95.4496 20.2273L94.245 20.5682C94.1693 20.3674 94.0575 20.1723 93.9098 19.983C93.7659 19.7898 93.5689 19.6307 93.3189 19.5057C93.0689 19.3807 92.7488 19.3182 92.3587 19.3182C91.8246 19.3182 91.3795 19.4413 91.0234 19.6875C90.6712 19.9299 90.495 20.2386 90.495 20.6136C90.495 20.947 90.6162 21.2102 90.8587 21.4034C91.1011 21.5966 91.4799 21.7576 91.995 21.8864L93.2905 22.2045C94.0708 22.3939 94.6522 22.6837 95.0348 23.0739C95.4174 23.4602 95.6087 23.9583 95.6087 24.5682C95.6087 25.0682 95.4647 25.5152 95.1768 25.9091C94.8927 26.303 94.495 26.6136 93.9837 26.8409C93.4723 27.0682 92.8776 27.1818 92.1996 27.1818C91.3094 27.1818 90.5727 26.9886 89.9893 26.6023C89.406 26.2159 89.0367 25.6515 88.8814 24.9091L90.1541 24.5909C90.2753 25.0606 90.5045 25.4129 90.8416 25.6477C91.1825 25.8826 91.6276 26 92.1768 26C92.8018 26 93.298 25.8674 93.6655 25.6023C94.0367 25.3333 94.2223 25.0114 94.2223 24.6364C94.2223 24.3333 94.1162 24.0795 93.9041 23.875C93.692 23.6667 93.3662 23.5114 92.9268 23.4091L91.4723 23.0682C90.673 22.8788 90.0859 22.5852 89.7109 22.1875C89.3397 21.786 89.1541 21.2841 89.1541 20.6818C89.1541 20.1894 89.2924 19.7538 89.5689 19.375C89.8492 18.9962 90.2299 18.6989 90.7109 18.483C91.1958 18.267 91.745 18.1591 92.3587 18.1591C93.2223 18.1591 93.9003 18.3485 94.3927 18.7273C94.889 19.1061 95.2412 19.6061 95.4496 20.2273ZM101.421 18.2727V19.4091H96.8983V18.2727H101.421ZM98.2164 16.1818H99.5573V24.5C99.5573 24.8788 99.6123 25.1629 99.7221 25.3523C99.8358 25.5379 99.9797 25.6629 100.154 25.7273C100.332 25.7879 100.519 25.8182 100.716 25.8182C100.864 25.8182 100.985 25.8106 101.08 25.7955C101.175 25.7765 101.251 25.7614 101.307 25.75L101.58 26.9545C101.489 26.9886 101.362 27.0227 101.199 27.0568C101.037 27.0947 100.83 27.1136 100.58 27.1136C100.201 27.1136 99.8301 27.0322 99.4664 26.8693C99.1066 26.7064 98.8073 26.4583 98.5687 26.125C98.3339 25.7917 98.2164 25.3712 98.2164 24.8636V16.1818ZM107.935 27V18.2727H109.276V27H107.935ZM108.617 16.8182C108.355 16.8182 108.13 16.7292 107.941 16.5511C107.755 16.3731 107.662 16.1591 107.662 15.9091C107.662 15.6591 107.755 15.4451 107.941 15.267C108.13 15.089 108.355 15 108.617 15C108.878 15 109.101 15.089 109.287 15.267C109.476 15.4451 109.571 15.6591 109.571 15.9091C109.571 16.1591 109.476 16.3731 109.287 16.5511C109.101 16.7292 108.878 16.8182 108.617 16.8182ZM113.071 21.75V27H111.73V18.2727H113.026V19.6364H113.139C113.344 19.1932 113.654 18.8371 114.071 18.5682C114.488 18.2955 115.026 18.1591 115.685 18.1591C116.276 18.1591 116.793 18.2803 117.236 18.5227C117.679 18.7614 118.024 19.125 118.27 19.6136C118.516 20.0985 118.639 20.7121 118.639 21.4545V27H117.298V21.5455C117.298 20.8598 117.12 20.3258 116.764 19.9432C116.408 19.5568 115.919 19.3636 115.298 19.3636C114.87 19.3636 114.488 19.4564 114.151 19.642C113.817 19.8277 113.554 20.0985 113.361 20.4545C113.168 20.8106 113.071 21.2424 113.071 21.75ZM124.883 18.2727V19.4091H120.361V18.2727H124.883ZM121.679 16.1818H123.02V24.5C123.02 24.8788 123.075 25.1629 123.184 25.3523C123.298 25.5379 123.442 25.6629 123.616 25.7273C123.794 25.7879 123.982 25.8182 124.179 25.8182C124.327 25.8182 124.448 25.8106 124.542 25.7955C124.637 25.7765 124.713 25.7614 124.77 25.75L125.042 26.9545C124.952 26.9886 124.825 27.0227 124.662 27.0568C124.499 27.0947 124.292 27.1136 124.042 27.1136C123.664 27.1136 123.292 27.0322 122.929 26.8693C122.569 26.7064 122.27 26.4583 122.031 26.125C121.796 25.7917 121.679 25.3712 121.679 24.8636V16.1818ZM130.464 27.1818C129.623 27.1818 128.898 26.9962 128.288 26.625C127.682 26.25 127.214 25.7273 126.885 25.0568C126.559 24.3826 126.396 23.5985 126.396 22.7045C126.396 21.8106 126.559 21.0227 126.885 20.3409C127.214 19.6553 127.672 19.1212 128.26 18.7386C128.85 18.3523 129.54 18.1591 130.328 18.1591C130.782 18.1591 131.231 18.2348 131.674 18.3864C132.118 18.5379 132.521 18.7841 132.885 19.125C133.248 19.4621 133.538 19.9091 133.754 20.4659C133.97 21.0227 134.078 21.7083 134.078 22.5227V23.0909H127.35V21.9318H132.714C132.714 21.4394 132.616 21 132.419 20.6136C132.225 20.2273 131.949 19.9223 131.589 19.6989C131.233 19.4754 130.813 19.3636 130.328 19.3636C129.794 19.3636 129.332 19.4962 128.941 19.7614C128.555 20.0227 128.258 20.3636 128.049 20.7841C127.841 21.2045 127.737 21.6553 127.737 22.1364V22.9091C127.737 23.5682 127.85 24.1269 128.078 24.5852C128.309 25.0398 128.629 25.3864 129.038 25.625C129.447 25.8598 129.922 25.9773 130.464 25.9773C130.816 25.9773 131.135 25.928 131.419 25.8295C131.707 25.7273 131.955 25.5758 132.163 25.375C132.371 25.1705 132.532 24.9167 132.646 24.6136L133.941 24.9773C133.805 25.4167 133.576 25.803 133.254 26.1364C132.932 26.4659 132.534 26.7235 132.061 26.9091C131.587 27.0909 131.055 27.1818 130.464 27.1818ZM139.639 30.4545C138.991 30.4545 138.434 30.3712 137.968 30.2045C137.502 30.0417 137.114 29.8258 136.803 29.5568C136.497 29.2917 136.252 29.0076 136.07 28.7045L137.139 27.9545C137.26 28.1136 137.413 28.2955 137.599 28.5C137.784 28.7083 138.038 28.8883 138.36 29.0398C138.686 29.1951 139.112 29.2727 139.639 29.2727C140.343 29.2727 140.925 29.1023 141.383 28.7614C141.841 28.4205 142.07 27.8864 142.07 27.1591V25.3864H141.957C141.858 25.5455 141.718 25.7424 141.536 25.9773C141.358 26.2083 141.101 26.4148 140.764 26.5966C140.43 26.7746 139.98 26.8636 139.411 26.8636C138.707 26.8636 138.074 26.697 137.514 26.3636C136.957 26.0303 136.516 25.5455 136.19 24.9091C135.868 24.2727 135.707 23.5 135.707 22.5909C135.707 21.697 135.864 20.9186 136.178 20.2557C136.493 19.589 136.93 19.0739 137.491 18.7102C138.052 18.3428 138.699 18.1591 139.434 18.1591C140.002 18.1591 140.453 18.2538 140.786 18.4432C141.123 18.6288 141.381 18.8409 141.559 19.0795C141.741 19.3144 141.881 19.5076 141.98 19.6591H142.116V18.2727H143.411V27.25C143.411 28 143.241 28.6098 142.9 29.0795C142.563 29.553 142.108 29.8996 141.536 30.1193C140.968 30.3428 140.336 30.4545 139.639 30.4545ZM139.593 25.6591C140.131 25.6591 140.586 25.536 140.957 25.2898C141.328 25.0436 141.61 24.6894 141.803 24.2273C141.997 23.7652 142.093 23.2121 142.093 22.5682C142.093 21.9394 141.998 21.3845 141.809 20.9034C141.62 20.4223 141.339 20.0455 140.968 19.7727C140.597 19.5 140.139 19.3636 139.593 19.3636C139.025 19.3636 138.552 19.5076 138.173 19.7955C137.798 20.0833 137.516 20.4697 137.326 20.9545C137.141 21.4394 137.048 21.9773 137.048 22.5682C137.048 23.1742 137.142 23.7102 137.332 24.1761C137.525 24.6383 137.809 25.0019 138.184 25.267C138.563 25.5284 139.033 25.6591 139.593 25.6591ZM145.864 27V18.2727H147.16V19.5909H147.251C147.41 19.1591 147.698 18.8087 148.114 18.5398C148.531 18.2708 149.001 18.1364 149.523 18.1364C149.622 18.1364 149.745 18.1383 149.893 18.142C150.04 18.1458 150.152 18.1515 150.228 18.1591V19.5227C150.183 19.5114 150.078 19.4943 149.915 19.4716C149.756 19.4451 149.588 19.4318 149.41 19.4318C148.986 19.4318 148.607 19.5208 148.273 19.6989C147.944 19.8731 147.683 20.1155 147.489 20.4261C147.3 20.733 147.205 21.0833 147.205 21.4773V27H145.864ZM154.384 27.2045C153.831 27.2045 153.329 27.1004 152.878 26.892C152.428 26.6799 152.07 26.375 151.804 25.9773C151.539 25.5758 151.407 25.0909 151.407 24.5227C151.407 24.0227 151.505 23.6174 151.702 23.3068C151.899 22.9924 152.162 22.7462 152.492 22.5682C152.822 22.3902 153.185 22.2576 153.583 22.1705C153.984 22.0795 154.388 22.0076 154.793 21.9545C155.323 21.8864 155.753 21.8352 156.083 21.8011C156.416 21.7633 156.659 21.7008 156.81 21.6136C156.965 21.5265 157.043 21.375 157.043 21.1591V21.1136C157.043 20.553 156.89 20.1174 156.583 19.8068C156.28 19.4962 155.82 19.3409 155.202 19.3409C154.562 19.3409 154.06 19.4811 153.697 19.7614C153.333 20.0417 153.077 20.3409 152.929 20.6591L151.657 20.2045C151.884 19.6742 152.187 19.2614 152.566 18.9659C152.948 18.6667 153.365 18.4583 153.816 18.3409C154.27 18.2197 154.717 18.1591 155.157 18.1591C155.437 18.1591 155.759 18.1932 156.123 18.2614C156.49 18.3258 156.844 18.4602 157.185 18.6648C157.53 18.8693 157.816 19.178 158.043 19.5909C158.27 20.0038 158.384 20.5568 158.384 21.25V27H157.043V25.8182H156.975C156.884 26.0076 156.733 26.2102 156.52 26.4261C156.308 26.642 156.026 26.8258 155.674 26.9773C155.322 27.1288 154.892 27.2045 154.384 27.2045ZM154.589 26C155.119 26 155.566 25.8958 155.929 25.6875C156.297 25.4792 156.573 25.2102 156.759 24.8807C156.948 24.5511 157.043 24.2045 157.043 23.8409V22.6136C156.986 22.6818 156.861 22.7443 156.668 22.8011C156.479 22.8542 156.259 22.9015 156.009 22.9432C155.763 22.9811 155.522 23.0152 155.287 23.0455C155.056 23.072 154.869 23.0947 154.725 23.1136C154.376 23.1591 154.051 23.233 153.748 23.3352C153.448 23.4337 153.206 23.5833 153.02 23.7841C152.839 23.9811 152.748 24.25 152.748 24.5909C152.748 25.0568 152.92 25.4091 153.265 25.6477C153.613 25.8826 154.054 26 154.589 26ZM164.625 18.2727V19.4091H160.103V18.2727H164.625ZM161.421 16.1818H162.762V24.5C162.762 24.8788 162.817 25.1629 162.926 25.3523C163.04 25.5379 163.184 25.6629 163.358 25.7273C163.536 25.7879 163.724 25.8182 163.921 25.8182C164.069 25.8182 164.19 25.8106 164.284 25.7955C164.379 25.7765 164.455 25.7614 164.512 25.75L164.784 26.9545C164.694 26.9886 164.567 27.0227 164.404 27.0568C164.241 27.0947 164.034 27.1136 163.784 27.1136C163.406 27.1136 163.034 27.0322 162.671 26.8693C162.311 26.7064 162.012 26.4583 161.773 26.125C161.538 25.7917 161.421 25.3712 161.421 24.8636V16.1818ZM166.641 27V18.2727H167.982V27H166.641ZM167.323 16.8182C167.061 16.8182 166.836 16.7292 166.646 16.5511C166.461 16.3731 166.368 16.1591 166.368 15.9091C166.368 15.6591 166.461 15.4451 166.646 15.267C166.836 15.089 167.061 15 167.323 15C167.584 15 167.807 15.089 167.993 15.267C168.182 15.4451 168.277 15.6591 168.277 15.9091C168.277 16.1591 168.182 16.3731 167.993 16.5511C167.807 16.7292 167.584 16.8182 167.323 16.8182ZM173.982 27.1818C173.194 27.1818 172.502 26.9943 171.908 26.6193C171.317 26.2443 170.855 25.7197 170.521 25.0455C170.192 24.3712 170.027 23.5833 170.027 22.6818C170.027 21.7727 170.192 20.9792 170.521 20.3011C170.855 19.6231 171.317 19.0966 171.908 18.7216C172.502 18.3466 173.194 18.1591 173.982 18.1591C174.769 18.1591 175.459 18.3466 176.05 18.7216C176.644 19.0966 177.107 19.6231 177.436 20.3011C177.769 20.9792 177.936 21.7727 177.936 22.6818C177.936 23.5833 177.769 24.3712 177.436 25.0455C177.107 25.7197 176.644 26.2443 176.05 26.6193C175.459 26.9943 174.769 27.1818 173.982 27.1818ZM173.982 25.9773C174.58 25.9773 175.072 25.8239 175.459 25.517C175.845 25.2102 176.131 24.8068 176.317 24.3068C176.502 23.8068 176.595 23.2652 176.595 22.6818C176.595 22.0985 176.502 21.5549 176.317 21.0511C176.131 20.5473 175.845 20.1402 175.459 19.8295C175.072 19.5189 174.58 19.3636 173.982 19.3636C173.383 19.3636 172.891 19.5189 172.504 19.8295C172.118 20.1402 171.832 20.5473 171.646 21.0511C171.461 21.5549 171.368 22.0985 171.368 22.6818C171.368 23.2652 171.461 23.8068 171.646 24.3068C171.832 24.8068 172.118 25.2102 172.504 25.517C172.891 25.8239 173.383 25.9773 173.982 25.9773ZM181.322 21.75V27H179.981V18.2727H181.277V19.6364H181.39C181.595 19.1932 181.906 18.8371 182.322 18.5682C182.739 18.2955 183.277 18.1591 183.936 18.1591C184.527 18.1591 185.044 18.2803 185.487 18.5227C185.93 18.7614 186.275 19.125 186.521 19.6136C186.767 20.0985 186.89 20.7121 186.89 21.4545V27H185.55V21.5455C185.55 20.8598 185.371 20.3258 185.015 19.9432C184.659 19.5568 184.171 19.3636 183.55 19.3636C183.121 19.3636 182.739 19.4564 182.402 19.642C182.068 19.8277 181.805 20.0985 181.612 20.4545C181.419 20.8106 181.322 21.2424 181.322 21.75ZM193.838 18.2727H195.178V27.6364C195.178 28.1742 195.086 28.6402 194.9 29.0341C194.718 29.428 194.442 29.733 194.07 29.9489C193.703 30.1648 193.239 30.2727 192.678 30.2727C192.633 30.2727 192.588 30.2727 192.542 30.2727C192.497 30.2727 192.451 30.2727 192.406 30.2727V29.0227C192.451 29.0227 192.493 29.0227 192.531 29.0227C192.569 29.0227 192.61 29.0227 192.656 29.0227C193.065 29.0227 193.364 28.9015 193.553 28.6591C193.743 28.4205 193.838 28.0795 193.838 27.6364V18.2727ZM194.497 16.8182C194.235 16.8182 194.01 16.7292 193.82 16.5511C193.635 16.3731 193.542 16.1591 193.542 15.9091C193.542 15.6591 193.635 15.4451 193.82 15.267C194.01 15.089 194.235 15 194.497 15C194.758 15 194.981 15.089 195.167 15.267C195.356 15.4451 195.451 15.6591 195.451 15.9091C195.451 16.1591 195.356 16.3731 195.167 16.5511C194.981 16.7292 194.758 16.8182 194.497 16.8182ZM203.133 23.4318V18.2727H204.474V27H203.133V25.5227H203.042C202.837 25.9659 202.519 26.3428 202.087 26.6534C201.656 26.9602 201.11 27.1136 200.451 27.1136C199.906 27.1136 199.421 26.9943 198.996 26.7557C198.572 26.5133 198.239 26.1496 197.996 25.6648C197.754 25.1761 197.633 24.5606 197.633 23.8182V18.2727H198.974V23.7273C198.974 24.3636 199.152 24.8712 199.508 25.25C199.868 25.6288 200.326 25.8182 200.883 25.8182C201.216 25.8182 201.555 25.733 201.9 25.5625C202.248 25.392 202.54 25.1307 202.775 24.7784C203.013 24.4261 203.133 23.9773 203.133 23.4318ZM213.11 20.2273L211.905 20.5682C211.83 20.3674 211.718 20.1723 211.57 19.983C211.426 19.7898 211.229 19.6307 210.979 19.5057C210.729 19.3807 210.409 19.3182 210.019 19.3182C209.485 19.3182 209.04 19.4413 208.684 19.6875C208.331 19.9299 208.155 20.2386 208.155 20.6136C208.155 20.947 208.277 21.2102 208.519 21.4034C208.761 21.5966 209.14 21.7576 209.655 21.8864L210.951 22.2045C211.731 22.3939 212.313 22.6837 212.695 23.0739C213.078 23.4602 213.269 23.9583 213.269 24.5682C213.269 25.0682 213.125 25.5152 212.837 25.9091C212.553 26.303 212.155 26.6136 211.644 26.8409C211.133 27.0682 210.538 27.1818 209.86 27.1818C208.97 27.1818 208.233 26.9886 207.65 26.6023C207.066 26.2159 206.697 25.6515 206.542 24.9091L207.814 24.5909C207.936 25.0606 208.165 25.4129 208.502 25.6477C208.843 25.8826 209.288 26 209.837 26C210.462 26 210.958 25.8674 211.326 25.6023C211.697 25.3333 211.883 25.0114 211.883 24.6364C211.883 24.3333 211.777 24.0795 211.564 23.875C211.352 23.6667 211.027 23.5114 210.587 23.4091L209.133 23.0682C208.333 22.8788 207.746 22.5852 207.371 22.1875C207 21.786 206.814 21.2841 206.814 20.6818C206.814 20.1894 206.953 19.7538 207.229 19.375C207.509 18.9962 207.89 18.6989 208.371 18.483C208.856 18.267 209.405 18.1591 210.019 18.1591C210.883 18.1591 211.561 18.3485 212.053 18.7273C212.549 19.1061 212.902 19.6061 213.11 20.2273ZM219.081 18.2727V19.4091H214.559V18.2727H219.081ZM215.877 16.1818H217.218V24.5C217.218 24.8788 217.273 25.1629 217.382 25.3523C217.496 25.5379 217.64 25.6629 217.814 25.7273C217.992 25.7879 218.18 25.8182 218.377 25.8182C218.524 25.8182 218.646 25.8106 218.74 25.7955C218.835 25.7765 218.911 25.7614 218.968 25.75L219.24 26.9545C219.149 26.9886 219.023 27.0227 218.86 27.0568C218.697 27.0947 218.49 27.1136 218.24 27.1136C217.862 27.1136 217.49 27.0322 217.127 26.8693C216.767 26.7064 216.468 26.4583 216.229 26.125C215.994 25.7917 215.877 25.3712 215.877 24.8636V16.1818ZM228.163 27.2045C227.61 27.2045 227.108 27.1004 226.658 26.892C226.207 26.6799 225.849 26.375 225.584 25.9773C225.319 25.5758 225.186 25.0909 225.186 24.5227C225.186 24.0227 225.285 23.6174 225.481 23.3068C225.678 22.9924 225.942 22.7462 226.271 22.5682C226.601 22.3902 226.964 22.2576 227.362 22.1705C227.764 22.0795 228.167 22.0076 228.572 21.9545C229.103 21.8864 229.533 21.8352 229.862 21.8011C230.195 21.7633 230.438 21.7008 230.589 21.6136C230.745 21.5265 230.822 21.375 230.822 21.1591V21.1136C230.822 20.553 230.669 20.1174 230.362 19.8068C230.059 19.4962 229.599 19.3409 228.981 19.3409C228.341 19.3409 227.839 19.4811 227.476 19.7614C227.112 20.0417 226.856 20.3409 226.709 20.6591L225.436 20.2045C225.663 19.6742 225.966 19.2614 226.345 18.9659C226.728 18.6667 227.144 18.4583 227.595 18.3409C228.05 18.2197 228.497 18.1591 228.936 18.1591C229.216 18.1591 229.538 18.1932 229.902 18.2614C230.269 18.3258 230.624 18.4602 230.964 18.6648C231.309 18.8693 231.595 19.178 231.822 19.5909C232.05 20.0038 232.163 20.5568 232.163 21.25V27H230.822V25.8182H230.754C230.663 26.0076 230.512 26.2102 230.3 26.4261C230.088 26.642 229.805 26.8258 229.453 26.9773C229.101 27.1288 228.671 27.2045 228.163 27.2045ZM228.368 26C228.898 26 229.345 25.8958 229.709 25.6875C230.076 25.4792 230.353 25.2102 230.538 24.8807C230.728 24.5511 230.822 24.2045 230.822 23.8409V22.6136C230.766 22.6818 230.641 22.7443 230.447 22.8011C230.258 22.8542 230.038 22.9015 229.788 22.9432C229.542 22.9811 229.302 23.0152 229.067 23.0455C228.836 23.072 228.648 23.0947 228.504 23.1136C228.156 23.1591 227.83 23.233 227.527 23.3352C227.228 23.4337 226.985 23.5833 226.8 23.7841C226.618 23.9811 226.527 24.25 226.527 24.5909C226.527 25.0568 226.699 25.4091 227.044 25.6477C227.392 25.8826 227.834 26 228.368 26ZM234.609 27V18.2727H235.905V19.5909H235.996C236.155 19.1591 236.442 18.8087 236.859 18.5398C237.276 18.2708 237.746 18.1364 238.268 18.1364C238.367 18.1364 238.49 18.1383 238.638 18.142C238.785 18.1458 238.897 18.1515 238.973 18.1591V19.5227C238.927 19.5114 238.823 19.4943 238.66 19.4716C238.501 19.4451 238.333 19.4318 238.155 19.4318C237.73 19.4318 237.352 19.5208 237.018 19.6989C236.689 19.8731 236.427 20.1155 236.234 20.4261C236.045 20.733 235.95 21.0833 235.95 21.4773V27H234.609ZM240.561 27V18.2727H241.856V19.5909H241.947C242.106 19.1591 242.394 18.8087 242.811 18.5398C243.227 18.2708 243.697 18.1364 244.22 18.1364C244.318 18.1364 244.441 18.1383 244.589 18.142C244.737 18.1458 244.849 18.1515 244.924 18.1591V19.5227C244.879 19.5114 244.775 19.4943 244.612 19.4716C244.453 19.4451 244.284 19.4318 244.106 19.4318C243.682 19.4318 243.303 19.5208 242.97 19.6989C242.64 19.8731 242.379 20.1155 242.186 20.4261C241.996 20.733 241.902 21.0833 241.902 21.4773V27H240.561ZM246.512 27V18.2727H247.853V27H246.512ZM247.194 16.8182C246.933 16.8182 246.707 16.7292 246.518 16.5511C246.332 16.3731 246.239 16.1591 246.239 15.9091C246.239 15.6591 246.332 15.4451 246.518 15.267C246.707 15.089 246.933 15 247.194 15C247.455 15 247.679 15.089 247.864 15.267C248.054 15.4451 248.149 15.6591 248.149 15.9091C248.149 16.1591 248.054 16.3731 247.864 16.5511C247.679 16.7292 247.455 16.8182 247.194 16.8182ZM257.444 18.2727L254.217 27H252.853L249.626 18.2727H251.08L253.489 25.2273H253.58L255.989 18.2727H257.444ZM262.559 27.1818C261.718 27.1818 260.992 26.9962 260.383 26.625C259.777 26.25 259.309 25.7273 258.979 25.0568C258.653 24.3826 258.491 23.5985 258.491 22.7045C258.491 21.8106 258.653 21.0227 258.979 20.3409C259.309 19.6553 259.767 19.1212 260.354 18.7386C260.945 18.3523 261.634 18.1591 262.422 18.1591C262.877 18.1591 263.326 18.2348 263.769 18.3864C264.212 18.5379 264.616 18.7841 264.979 19.125C265.343 19.4621 265.633 19.9091 265.848 20.4659C266.064 21.0227 266.172 21.7083 266.172 22.5227V23.0909H259.445V21.9318H264.809C264.809 21.4394 264.71 21 264.513 20.6136C264.32 20.2273 264.044 19.9223 263.684 19.6989C263.328 19.4754 262.907 19.3636 262.422 19.3636C261.888 19.3636 261.426 19.4962 261.036 19.7614C260.65 20.0227 260.352 20.3636 260.144 20.7841C259.936 21.2045 259.831 21.6553 259.831 22.1364V22.9091C259.831 23.5682 259.945 24.1269 260.172 24.5852C260.403 25.0398 260.723 25.3864 261.133 25.625C261.542 25.8598 262.017 25.9773 262.559 25.9773C262.911 25.9773 263.229 25.928 263.513 25.8295C263.801 25.7273 264.049 25.5758 264.258 25.375C264.466 25.1705 264.627 24.9167 264.741 24.6136L266.036 24.9773C265.9 25.4167 265.67 25.803 265.348 26.1364C265.027 26.4659 264.629 26.7235 264.155 26.9091C263.682 27.0909 263.15 27.1818 262.559 27.1818ZM271.506 27.1818C270.779 27.1818 270.137 26.9981 269.58 26.6307C269.023 26.2595 268.587 25.7367 268.273 25.0625C267.959 24.3845 267.801 23.5833 267.801 22.6591C267.801 21.7424 267.959 20.947 268.273 20.2727C268.587 19.5985 269.025 19.0777 269.586 18.7102C270.146 18.3428 270.794 18.1591 271.529 18.1591C272.097 18.1591 272.546 18.2538 272.875 18.4432C273.209 18.6288 273.462 18.8409 273.637 19.0795C273.815 19.3144 273.953 19.5076 274.051 19.6591H274.165V15.3636H275.506V27H274.211V25.6591H274.051C273.953 25.8182 273.813 26.0189 273.631 26.2614C273.449 26.5 273.19 26.714 272.853 26.9034C272.515 27.089 272.067 27.1818 271.506 27.1818ZM271.688 25.9773C272.226 25.9773 272.68 25.8371 273.051 25.5568C273.423 25.2727 273.705 24.8807 273.898 24.3807C274.091 23.8769 274.188 23.2955 274.188 22.6364C274.188 21.9848 274.093 21.4148 273.904 20.9261C273.714 20.4337 273.434 20.0511 273.063 19.7784C272.692 19.5019 272.233 19.3636 271.688 19.3636C271.12 19.3636 270.646 19.5095 270.267 19.8011C269.892 20.089 269.61 20.4811 269.421 20.9773C269.235 21.4697 269.142 22.0227 269.142 22.6364C269.142 23.2576 269.237 23.822 269.426 24.3295C269.62 24.8333 269.904 25.2348 270.279 25.5341C270.657 25.8295 271.127 25.9773 271.688 25.9773Z" fill="#9855FF"/>
</svg>
