<svg width="16" height="16" viewBox="0 0 16 16" fill="none" xmlns="http://www.w3.org/2000/svg">
<path d="M14 4.44376C13.8823 4.50471 13.7452 4.51644 13.6189 4.47635C13.4925 4.43627 13.3873 4.34767 13.3263 4.23001C12.849 3.2872 12.1266 2.49033 11.235 1.92314C11.1794 1.88809 11.1313 1.84245 11.0934 1.7888C11.0555 1.73516 11.0285 1.67457 11.014 1.6105C10.9995 1.54643 10.9977 1.48012 11.0088 1.41538C11.0199 1.35063 11.0437 1.28871 11.0788 1.23314C11.1138 1.17757 11.1594 1.12946 11.2131 1.09153C11.2667 1.05361 11.3273 1.02662 11.3914 1.01211C11.4555 0.997602 11.5218 0.995855 11.5865 1.00697C11.6513 1.01808 11.7132 1.04184 11.7688 1.07689C12.8079 1.74222 13.6516 2.67162 14.2138 3.77001C14.2747 3.88771 14.2864 4.0248 14.2463 4.15114C14.2063 4.27747 14.1177 4.38273 14 4.44376ZM2.23188 4.50001C2.32348 4.49998 2.41331 4.47477 2.49156 4.42716C2.56982 4.37955 2.63349 4.31135 2.67563 4.23001C3.15288 3.2872 3.87526 2.49033 4.76688 1.92314C4.8791 1.85236 4.9586 1.7399 4.98791 1.6105C5.01721 1.4811 4.99391 1.34536 4.92313 1.23314C4.85235 1.12092 4.73989 1.04141 4.61049 1.01211C4.48109 0.982808 4.34535 1.00611 4.23313 1.07689C3.194 1.74222 2.35024 2.67162 1.78813 3.77001C1.74865 3.84621 1.72945 3.93129 1.73238 4.01706C1.7353 4.10283 1.76025 4.1864 1.80483 4.25973C1.84941 4.33306 1.91211 4.39369 1.9869 4.43577C2.06169 4.47785 2.14606 4.49998 2.23188 4.50001ZM13.8631 10.9963C13.9517 11.1482 13.9987 11.3207 13.9993 11.4966C13.9999 11.6724 13.9541 11.8453 13.8666 11.9978C13.779 12.1503 13.6528 12.2771 13.5007 12.3652C13.3485 12.4534 13.1758 12.4999 13 12.5H10.45C10.3352 13.0652 10.0286 13.5733 9.58213 13.9382C9.13563 14.3032 8.57668 14.5025 8 14.5025C7.42332 14.5025 6.86438 14.3032 6.41787 13.9382C5.97137 13.5733 5.66476 13.0652 5.55 12.5H3C2.82427 12.4997 2.65172 12.453 2.49976 12.3648C2.34779 12.2765 2.22176 12.1498 2.13438 11.9973C2.04699 11.8448 2.00132 11.672 2.00198 11.4963C2.00264 11.3205 2.0496 11.1481 2.13813 10.9963C2.70125 10.0244 3 8.64251 3 7.00001C3 5.67393 3.52679 4.40216 4.46447 3.46448C5.40215 2.5268 6.67392 2.00001 8 2.00001C9.32608 2.00001 10.5979 2.5268 11.5355 3.46448C12.4732 4.40216 13 5.67393 13 7.00001C13 8.64189 13.2988 10.0238 13.8631 10.9963ZM9.41375 12.5H6.58625C6.68984 12.7921 6.88138 13.045 7.13454 13.2239C7.3877 13.4027 7.69005 13.4987 8 13.4987C8.30996 13.4987 8.6123 13.4027 8.86546 13.2239C9.11862 13.045 9.31016 12.7921 9.41375 12.5ZM13 11.5C12.335 10.3581 12 8.84439 12 7.00001C12 5.93915 11.5786 4.92173 10.8284 4.17159C10.0783 3.42144 9.06087 3.00001 8 3.00001C6.93914 3.00001 5.92172 3.42144 5.17157 4.17159C4.42143 4.92173 4 5.93915 4 7.00001C4 8.84501 3.66375 10.3588 3 11.5H13Z" fill="white"/>
</svg>
