<svg width="16" height="16" viewBox="0 0 16 16" fill="none" xmlns="http://www.w3.org/2000/svg">
<path d="M5.50001 1.50004V1.00004C5.50001 0.867433 5.55269 0.740256 5.64646 0.646488C5.74023 0.55272 5.8674 0.500041 6.00001 0.500041C6.13262 0.500041 6.2598 0.55272 6.35356 0.646488C6.44733 0.740256 6.50001 0.867433 6.50001 1.00004V1.50004C6.50001 1.63265 6.44733 1.75983 6.35356 1.85359C6.2598 1.94736 6.13262 2.00004 6.00001 2.00004C5.8674 2.00004 5.74023 1.94736 5.64646 1.85359C5.55269 1.75983 5.50001 1.63265 5.50001 1.50004ZM1.00001 6.50004H1.50001C1.63262 6.50004 1.7598 6.44736 1.85356 6.35359C1.94733 6.25983 2.00001 6.13265 2.00001 6.00004C2.00001 5.86743 1.94733 5.74026 1.85356 5.64649C1.7598 5.55272 1.63262 5.50004 1.50001 5.50004H1.00001C0.867402 5.50004 0.740225 5.55272 0.646457 5.64649C0.552689 5.74026 0.500011 5.86743 0.500011 6.00004C0.500011 6.13265 0.552689 6.25983 0.646457 6.35359C0.740225 6.44736 0.867402 6.50004 1.00001 6.50004ZM7.77626 2.44754C7.83502 2.47697 7.899 2.49452 7.96455 2.4992C8.0301 2.50388 8.09593 2.49559 8.15827 2.47481C8.22061 2.45403 8.27824 2.42117 8.32788 2.37809C8.37751 2.33502 8.41816 2.28259 8.44751 2.22379L8.94751 1.22379C9.00685 1.10519 9.01665 0.967872 8.97475 0.842047C8.93284 0.716222 8.84267 0.612196 8.72407 0.552854C8.60547 0.493511 8.46815 0.483714 8.34233 0.525617C8.2165 0.567519 8.11248 0.65769 8.05314 0.776291L7.55314 1.77629C7.52369 1.83501 7.5061 1.89896 7.50137 1.96448C7.49665 2.03 7.50489 2.09581 7.52561 2.15815C7.54633 2.22049 7.57913 2.27813 7.62214 2.32779C7.66515 2.37744 7.71752 2.41814 7.77626 2.44754ZM1.77626 7.55317L0.776261 8.05317C0.657659 8.11251 0.567489 8.21653 0.525586 8.34236C0.483684 8.46818 0.493481 8.6055 0.552823 8.7241C0.612165 8.84271 0.716191 8.93288 0.842016 8.97478C0.967842 9.01668 1.10516 9.00688 1.22376 8.94754L2.22376 8.44754C2.28249 8.41816 2.33485 8.3775 2.37786 8.32788C2.42087 8.27826 2.45369 8.22065 2.47443 8.15835C2.49518 8.09605 2.50346 8.03027 2.49878 7.96477C2.49411 7.89927 2.47658 7.83533 2.4472 7.7766C2.41781 7.71788 2.37715 7.66552 2.32753 7.6225C2.27791 7.57949 2.22031 7.54668 2.158 7.52593C2.0957 7.50518 2.02992 7.49691 1.96442 7.50158C1.89892 7.50625 1.83499 7.52378 1.77626 7.55317ZM13.7069 11.5C13.7998 11.5929 13.8734 11.7032 13.9237 11.8245C13.974 11.9458 13.9999 12.0759 13.9999 12.2072C13.9999 12.3386 13.974 12.4686 13.9237 12.59C13.8734 12.7113 13.7998 12.8216 13.7069 12.9144L12.9144 13.7069C12.8215 13.7998 12.7113 13.8735 12.5899 13.9237C12.4686 13.974 12.3385 13.9999 12.2072 13.9999C12.0759 13.9999 11.9458 13.974 11.8245 13.9237C11.7031 13.8735 11.5929 13.7998 11.5 13.7069L8.29376 10.5L7.18751 13.3807C7.18751 13.3869 7.18251 13.3938 7.17939 13.4007C7.10286 13.5791 6.97555 13.731 6.81329 13.8376C6.65104 13.9442 6.46101 14.0007 6.26689 14H6.21751C6.01505 13.9915 5.82011 13.9209 5.65904 13.798C5.49797 13.675 5.37853 13.5056 5.31689 13.3125L2.05001 3.30754C1.99393 3.13256 1.98714 2.94552 2.03039 2.76694C2.07364 2.58836 2.16526 2.42514 2.29519 2.29522C2.42511 2.16529 2.58833 2.07367 2.76691 2.03042C2.94549 1.98717 3.13253 1.99396 3.30751 2.05004L13.3125 5.31692C13.5037 5.38088 13.6711 5.50116 13.7928 5.66196C13.9144 5.82277 13.9846 6.01659 13.9942 6.218C14.0037 6.41941 13.9521 6.61899 13.8462 6.79056C13.7403 6.96213 13.585 7.09768 13.4006 7.17942L13.3806 7.18754L10.5 8.29317L13.7069 11.5ZM13 12.2069L9.79314 9.00004C9.67771 8.88482 9.59221 8.74312 9.5441 8.58729C9.49598 8.43146 9.48671 8.26622 9.5171 8.10599C9.54748 7.94575 9.61659 7.79538 9.71841 7.66797C9.82023 7.54057 9.95167 7.44001 10.1013 7.37504L10.1213 7.36629L12.9931 6.26379L3.00001 3.00004L6.26251 12.9913L7.36564 10.1163C7.36564 10.1094 7.37064 10.1025 7.37376 10.0957C7.43875 9.94619 7.53929 9.81486 7.66663 9.71312C7.79397 9.61138 7.94425 9.54231 8.10439 9.51192C8.16623 9.50045 8.22899 9.49459 8.29189 9.49442C8.55684 9.4947 8.81085 9.60013 8.99814 9.78754L12.2069 13L13 12.2069Z" fill="white"/>
</svg>
