<svg width="16" height="16" viewBox="0 0 16 16" fill="none" xmlns="http://www.w3.org/2000/svg">
<g clip-path="url(#clip0_2089_473)">
<path d="M12.3488 8.06625L9.12501 6.875L7.93751 3.64875C7.86719 3.45771 7.73996 3.29283 7.57298 3.17637C7.40601 3.0599 7.20733 2.99746 7.00376 2.99746C6.80018 2.99746 6.6015 3.0599 6.43453 3.17637C6.26756 3.29283 6.14033 3.45771 6.07001 3.64875L4.87501 6.875L1.64876 8.0625C1.45771 8.13282 1.29284 8.26005 1.17637 8.42702C1.05991 8.594 0.997467 8.79267 0.997467 8.99625C0.997467 9.19983 1.05991 9.3985 1.17637 9.56548C1.29284 9.73245 1.45771 9.85968 1.64876 9.93L4.87501 11.125L6.06251 14.3512C6.13283 14.5423 6.26006 14.7072 6.42703 14.8236C6.594 14.9401 6.79268 15.0025 6.99626 15.0025C7.19983 15.0025 7.39851 14.9401 7.56548 14.8236C7.73245 14.7072 7.85969 14.5423 7.93001 14.3512L9.12501 11.125L12.3513 9.9375C12.5423 9.86718 12.7072 9.73995 12.8236 9.57298C12.9401 9.406 13.0025 9.20733 13.0025 9.00375C13.0025 8.80017 12.9401 8.6015 12.8236 8.43452C12.7072 8.26755 12.5423 8.14032 12.3513 8.07L12.3488 8.06625ZM8.56251 10.2638C8.49464 10.2888 8.433 10.3282 8.38186 10.3793C8.33071 10.4305 8.29127 10.4921 8.26626 10.56L7.00001 13.9906L5.73626 10.5625C5.71129 10.4939 5.6716 10.4316 5.61999 10.38C5.56838 10.3284 5.50609 10.2887 5.43751 10.2638L2.00938 9L5.43751 7.73625C5.50609 7.71128 5.56838 7.67159 5.61999 7.61998C5.6716 7.56837 5.71129 7.50608 5.73626 7.4375L7.00001 4.00938L8.26376 7.4375C8.28877 7.50537 8.32821 7.567 8.37936 7.61815C8.4305 7.6693 8.49214 7.70874 8.56001 7.73375L11.9906 9L8.56251 10.2638ZM9.00001 2.5C9.00001 2.36739 9.05269 2.24021 9.14645 2.14645C9.24022 2.05268 9.3674 2 9.50001 2H10.5V1C10.5 0.867392 10.5527 0.740215 10.6465 0.646447C10.7402 0.552678 10.8674 0.5 11 0.5C11.1326 0.5 11.2598 0.552678 11.3536 0.646447C11.4473 0.740215 11.5 0.867392 11.5 1V2H12.5C12.6326 2 12.7598 2.05268 12.8536 2.14645C12.9473 2.24021 13 2.36739 13 2.5C13 2.63261 12.9473 2.75979 12.8536 2.85355C12.7598 2.94732 12.6326 3 12.5 3H11.5V4C11.5 4.13261 11.4473 4.25979 11.3536 4.35355C11.2598 4.44732 11.1326 4.5 11 4.5C10.8674 4.5 10.7402 4.44732 10.6465 4.35355C10.5527 4.25979 10.5 4.13261 10.5 4V3H9.50001C9.3674 3 9.24022 2.94732 9.14645 2.85355C9.05269 2.75979 9.00001 2.63261 9.00001 2.5ZM15.5 5.5C15.5 5.63261 15.4473 5.75979 15.3536 5.85355C15.2598 5.94732 15.1326 6 15 6H14.5V6.5C14.5 6.63261 14.4473 6.75979 14.3536 6.85355C14.2598 6.94732 14.1326 7 14 7C13.8674 7 13.7402 6.94732 13.6465 6.85355C13.5527 6.75979 13.5 6.63261 13.5 6.5V6H13C12.8674 6 12.7402 5.94732 12.6465 5.85355C12.5527 5.75979 12.5 5.63261 12.5 5.5C12.5 5.36739 12.5527 5.24021 12.6465 5.14645C12.7402 5.05268 12.8674 5 13 5H13.5V4.5C13.5 4.36739 13.5527 4.24021 13.6465 4.14645C13.7402 4.05268 13.8674 4 14 4C14.1326 4 14.2598 4.05268 14.3536 4.14645C14.4473 4.24021 14.5 4.36739 14.5 4.5V5H15C15.1326 5 15.2598 5.05268 15.3536 5.14645C15.4473 5.24021 15.5 5.36739 15.5 5.5Z" fill="white"/>
</g>
<defs>
<clipPath id="clip0_2089_473">
<rect width="16" height="16" fill="white"/>
</clipPath>
</defs>
</svg>
